<?xml version="1.0" encoding="iso-8859-1"?>
<!-- Generator: Adobe Illustrator 19.0.0, SVG Export Plug-In . SVG Version: 6.00 Build 0)  -->
<svg version="1.1" id="Capa_1" xmlns="http://www.w3.org/2000/svg" xmlns:xlink="http://www.w3.org/1999/xlink" x="0px"
  y="0px" viewBox="0 0 512 512" style="enable-background:new 0 0 512 512;" xml:space="preserve">
  <g>
    <g>
      <g>
        <path fill="white" d="M432,183.088V80H328.896L256,7.088L183.104,80H80v103.088L7.104,256L80,328.912V432h103.104L256,504.912L328.896,432H432
				V328.912L504.896,256L432,183.088z M400,315.664V400h-84.352L256,459.664L196.352,400H112v-84.336L52.352,256L112,196.336V112
				h84.352L256,52.336L315.648,112H400v84.336L459.648,256L400,315.664z" />
        <!-- <rect width="32" height="32"/> -->
        <!-- <rect y="480" width="32" height="32"/> -->
        <!-- <rect x="480" width="32" height="32"/> -->
        <path fill="white" d="M256,128c-70.692,0-128,57.308-128,128s57.308,128,128,128s128-57.308,128-128C383.921,185.34,326.66,128.079,256,128z
				 M256,352c-53.019,0-96-42.981-96-96s42.981-96,96-96s96,42.981,96,96C351.947,308.997,308.997,351.947,256,352z" />
        <!-- <rect x="480" y="480" width="32" height="32"/> -->
      </g>
    </g>
  </g>
  <g>
  </g>
  <g>
  </g>
  <g>
  </g>
  <g>
  </g>
  <g>
  </g>
  <g>
  </g>
  <g>
  </g>
  <g>
  </g>
  <g>
  </g>
  <g>
  </g>
  <g>
  </g>
  <g>
  </g>
  <g>
  </g>
  <g>
  </g>
  <g>
  </g>
</svg>
