<?xml version="1.0" encoding="UTF-8" standalone="no"?>
<svg
   xmlns:dc="http://purl.org/dc/elements/1.1/"
   xmlns:cc="http://creativecommons.org/ns#"
   xmlns:rdf="http://www.w3.org/1999/02/22-rdf-syntax-ns#"
   xmlns:svg="http://www.w3.org/2000/svg"
   xmlns="http://www.w3.org/2000/svg"
   xmlns:sodipodi="http://sodipodi.sourceforge.net/DTD/sodipodi-0.dtd"
   xmlns:inkscape="http://www.inkscape.org/namespaces/inkscape"
   id="Capa_1"
   enable-background="new 0 0 512 512"
   height="512"
   viewBox="0 0 512 512"
   width="512"
   version="1.1"
   sodipodi:docname="day-brightness-w.svg"
   inkscape:version="1.0.2 (e86c870, 2021-01-15)">
  <metadata
     id="metadata39">
    <rdf:RDF>
      <cc:Work
         rdf:about="">
        <dc:format>image/svg+xml</dc:format>
        <dc:type
           rdf:resource="http://purl.org/dc/dcmitype/StillImage" />
        <dc:title></dc:title>
      </cc:Work>
    </rdf:RDF>
  </metadata>
  <defs
     id="defs37" />
  <sodipodi:namedview
     pagecolor="#ffffff"
     bordercolor="#666666"
     borderopacity="1"
     objecttolerance="10"
     gridtolerance="10"
     guidetolerance="10"
     inkscape:pageopacity="0"
     inkscape:pageshadow="2"
     inkscape:window-width="1920"
     inkscape:window-height="1017"
     id="namedview35"
     showgrid="true"
     inkscape:zoom="1.1656213"
     inkscape:cx="170.81728"
     inkscape:cy="309.77317"
     inkscape:window-x="0"
     inkscape:window-y="39"
     inkscape:window-maximized="1"
     inkscape:current-layer="Capa_1"
     inkscape:document-rotation="0">
    <inkscape:grid
       type="xygrid"
       id="grid948" />
  </sodipodi:namedview>
  <g
     id="g32"
     transform="matrix(0.78128756,0,0,0.78128757,1.4023852,0)"
     style="fill:#ffffff">
    <path
       d="m 361.735,94.196 5.067,-68.979 -50.375,46.829 12.654,32.213 z"
       id="path2"
       style="fill:#ffffff" />
    <ellipse
       cx="256.00601"
       cy="256"
       rx="133.082"
       ry="133.08299"
       transform="matrix(0.987,-0.16,0.16,0.987,-37.701,44.313)"
       id="ellipse4"
       style="fill:#ffffff" />
    <path
       d="m 182.931,104.259 12.572,-32.007 -50.575,-46.9 5.136,68.779 z"
       id="path6"
       style="fill:#ffffff" />
    <path
       d="M 294.335,97.583 256.006,0 217.677,97.583 c 12.297,-2.976 25.13,-4.564 38.329,-4.564 13.199,0 26.032,1.588 38.329,4.564 z"
       id="path8"
       style="fill:#ffffff" />
    <path
       d="M 505.588,312.965 418.96,253.869 c 0.009,0.71 0.027,1.419 0.027,2.131 0,26.081 -6.168,50.745 -17.106,72.626 z"
       id="path10"
       style="fill:#ffffff" />
    <path
       d="M 403.743,187.226 456.155,96.387 355.87,127.29 c 20.344,15.82 36.849,36.349 47.873,59.936 z"
       id="path12"
       style="fill:#ffffff" />
    <path
       d="m 420.203,218.523 28.257,19.277 57.071,-39.018 -68.05,-10.205 z"
       id="path14"
       style="fill:#ffffff" />
    <path
       d="M 230.871,447.729 256.162,512 281.303,447.879 256.006,424.42 Z"
       id="path16"
       style="fill:#ffffff" />
    <path
       d="m 144.931,486.648 76.874,-71.289 c -25.8,-5.531 -49.355,-17.181 -69.061,-33.36 z"
       id="path18"
       style="fill:#ffffff" />
    <path
       d="M 290.206,415.36 367.08,486.649 359.268,382 c -19.706,16.179 -43.262,27.828 -69.062,33.36 z"
       id="path20"
       style="fill:#ffffff" />
    <path
       d="m 387.682,361.008 2.549,34.148 66.054,20.295 -34.453,-59.6 z"
       id="path22"
       style="fill:#ffffff" />
    <path
       d="M 156.142,127.29 55.856,96.386 l 52.413,90.84 c 11.024,-23.586 27.529,-44.115 47.873,-59.936 z"
       id="path24"
       style="fill:#ffffff" />
    <path
       d="M 91.809,218.523 74.642,188.769 6.412,199.088 63.368,237.925 Z"
       id="path26"
       style="fill:#ffffff" />
    <path
       d="m 55.922,415.697 65.843,-20.32 2.566,-34.369 -33.932,-5.124 z"
       id="path28"
       style="fill:#ffffff" />
    <path
       d="m 93.025,256 c 0,-0.713 0.018,-1.421 0.027,-2.132 L 6.425,312.965 110.132,328.626 C 99.193,306.745 93.025,282.081 93.025,256 Z"
       id="path30"
       style="fill:#ffffff" />
  </g>
  <g
     id="g946"
     transform="translate(234.07564,354.13907)"
     style="fill:#ffffff">
    <g
       id="g882"
       transform="translate(58.716358,-64.206071)"
       style="fill:#ffffff">
      <path
         d="m 109.881,183.46 c -4.142,0 -7.5,3.358 -7.5,7.5 v 21.324 c 0,4.142 3.358,7.5 7.5,7.5 4.143,0 7.5,-3.358 7.5,-7.5 V 190.96 c 0,-4.143 -3.358,-7.5 -7.5,-7.5 z"
         id="path864"
         style="fill:#ffffff" />
      <path
         d="m 109.881,36.329 c 4.143,0 7.5,-3.358 7.5,-7.5 V 7.503 c 0,-4.142 -3.357,-7.5 -7.5,-7.5 -4.142,0 -7.5,3.358 -7.5,7.5 v 21.326 c 0,4.142 3.358,7.5 7.5,7.5 z"
         id="path866"
         style="fill:#ffffff" />
      <path
         d="m 47.269,161.909 -15.084,15.076 c -2.93,2.928 -2.931,7.677 -0.003,10.606 1.465,1.465 3.385,2.198 5.305,2.198 1.919,0 3.837,-0.732 5.302,-2.195 l 15.084,-15.076 c 2.93,-2.928 2.931,-7.677 0.003,-10.606 -2.93,-2.93 -7.678,-2.93 -10.607,-0.003 z"
         id="path868"
         style="fill:#ffffff" />
      <path
         d="m 167.208,60.067 c 1.919,0 3.838,-0.732 5.303,-2.196 l 15.082,-15.076 c 2.929,-2.929 2.93,-7.677 0.002,-10.607 -2.929,-2.93 -7.677,-2.931 -10.607,-0.001 l -15.082,15.076 c -2.929,2.928 -2.93,7.677 -0.002,10.606 1.464,1.466 3.384,2.198 5.304,2.198 z"
         id="path870"
         style="fill:#ffffff" />
      <path
         d="m 36.324,109.895 c 0,-4.142 -3.358,-7.5 -7.5,-7.5 H 7.5 c -4.142,0 -7.5,3.358 -7.5,7.5 0,4.142 3.358,7.5 7.5,7.5 h 21.324 c 4.142,0 7.5,-3.358 7.5,-7.5 z"
         id="path872"
         style="fill:#ffffff" />
      <path
         d="m 212.286,102.395 h -21.334 c -4.143,0 -7.5,3.358 -7.5,7.5 0,4.142 3.357,7.5 7.5,7.5 h 21.334 c 4.143,0 7.5,-3.358 7.5,-7.5 0,-4.141 -3.357,-7.5 -7.5,-7.5 z"
         id="path874"
         style="fill:#ffffff" />
      <path
         d="m 47.267,57.871 c 1.464,1.464 3.384,2.196 5.303,2.196 1.919,0 3.839,-0.732 5.303,-2.196 2.929,-2.929 2.929,-7.678 0,-10.607 L 42.797,32.188 c -2.929,-2.929 -7.678,-2.929 -10.606,0 -2.929,2.929 -2.929,7.678 0,10.606 z"
         id="path876"
         style="fill:#ffffff" />
      <path
         d="m 172.52,161.911 c -2.929,-2.929 -7.678,-2.93 -10.607,-0.001 -2.93,2.929 -2.93,7.678 -0.001,10.606 l 15.074,15.076 c 1.465,1.465 3.384,2.197 5.304,2.197 1.919,0 3.839,-0.732 5.303,-2.196 2.93,-2.929 2.93,-7.678 0.001,-10.606 z"
         id="path878"
         style="fill:#ffffff" />
      <path
         d="m 109.889,51.518 c -32.187,0 -58.373,26.188 -58.373,58.377 0,32.188 26.186,58.375 58.373,58.375 32.19,0 58.378,-26.187 58.378,-58.375 0,-32.189 -26.189,-58.377 -58.378,-58.377 z m 0,101.752 c -23.916,0 -43.373,-19.458 -43.373,-43.375 0,-23.918 19.457,-43.377 43.373,-43.377 23.919,0 43.378,19.459 43.378,43.377 0,23.917 -19.459,43.375 -43.378,43.375 z"
         id="path880"
         style="fill:#ffffff" />
    </g>
    <g
       id="g884"
       style="fill:#ffffff" />
    <g
       id="g886"
       style="fill:#ffffff" />
    <g
       id="g888"
       style="fill:#ffffff" />
    <g
       id="g890"
       style="fill:#ffffff" />
    <g
       id="g892"
       style="fill:#ffffff" />
    <g
       id="g894"
       style="fill:#ffffff" />
    <g
       id="g896"
       style="fill:#ffffff" />
    <g
       id="g898"
       style="fill:#ffffff" />
    <g
       id="g900"
       style="fill:#ffffff" />
    <g
       id="g902"
       style="fill:#ffffff" />
    <g
       id="g904"
       style="fill:#ffffff" />
    <g
       id="g906"
       style="fill:#ffffff" />
    <g
       id="g908"
       style="fill:#ffffff" />
    <g
       id="g910"
       style="fill:#ffffff" />
    <g
       id="g912"
       style="fill:#ffffff" />
  </g>
</svg>
