<?xml version="1.0" encoding="UTF-8" standalone="no"?>
<svg
   xmlns:dc="http://purl.org/dc/elements/1.1/"
   xmlns:cc="http://creativecommons.org/ns#"
   xmlns:rdf="http://www.w3.org/1999/02/22-rdf-syntax-ns#"
   xmlns:svg="http://www.w3.org/2000/svg"
   xmlns="http://www.w3.org/2000/svg"
   xmlns:sodipodi="http://sodipodi.sourceforge.net/DTD/sodipodi-0.dtd"
   xmlns:inkscape="http://www.inkscape.org/namespaces/inkscape"
   id="Capa_1"
   enable-background="new 0 0 512 512"
   height="512"
   viewBox="0 0 512 512"
   width="512"
   version="1.1"
   sodipodi:docname="day-volume-w.svg"
   inkscape:version="1.0.2 (e86c870, 2021-01-15)">
  <metadata
     id="metadata19">
    <rdf:RDF>
      <cc:Work
         rdf:about="">
        <dc:format>image/svg+xml</dc:format>
        <dc:type
           rdf:resource="http://purl.org/dc/dcmitype/StillImage" />
        <dc:title></dc:title>
      </cc:Work>
    </rdf:RDF>
  </metadata>
  <defs
     id="defs17" />
  <sodipodi:namedview
     pagecolor="#ffffff"
     bordercolor="#666666"
     borderopacity="1"
     objecttolerance="10"
     gridtolerance="10"
     guidetolerance="10"
     inkscape:pageopacity="0"
     inkscape:pageshadow="2"
     inkscape:window-width="1920"
     inkscape:window-height="1017"
     id="namedview15"
     showgrid="true"
     inkscape:zoom="1.6484375"
     inkscape:cx="299.41865"
     inkscape:cy="240.46979"
     inkscape:window-x="0"
     inkscape:window-y="39"
     inkscape:window-maximized="1"
     inkscape:current-layer="Capa_1"
     inkscape:document-rotation="0">
    <inkscape:grid
       type="xygrid"
       id="grid921" />
  </sodipodi:namedview>
  <g
     id="g925"
     transform="matrix(1.3956213,0,0,1.3854936,-280.73493,0.10723637)"
     style="fill:#ffffff">
    <path
       d="M 318.096,295.712 357,283.863 l 38.902,11.85 c 1.442,0.439 2.913,0.652 4.369,0.652 4.621,0 9.086,-2.141 11.97,-5.96 l 24.509,-32.445 38.422,-13.301 c 5.938,-2.056 9.965,-7.595 10.09,-13.878 l 0.804,-40.658 23.242,-33.367 c 3.589,-5.152 3.589,-11.995 0,-17.147 l -23.242,-33.365 -0.803,-40.657 c -0.124,-6.283 -4.151,-11.823 -10.09,-13.878 L 436.751,38.407 412.244,5.96 C 408.45,0.938 401.924,-1.183 395.904,0.652 L 357,12.502 318.099,0.652 c -6.022,-1.834 -12.547,0.286 -16.34,5.308 L 277.25,38.405 238.828,51.706 c -5.938,2.056 -9.965,7.595 -10.09,13.878 l -0.804,40.658 -23.242,33.367 c -3.589,5.152 -3.589,11.995 0,17.147 l 23.242,33.364 0.803,40.658 c 0.124,6.283 4.151,11.823 10.09,13.878 l 38.422,13.302 24.508,32.446 c 3.794,5.022 10.318,7.142 16.339,5.308 z m -19.66,-59.476 c -1.793,-2.374 -4.251,-4.161 -7.062,-5.134 l -32.85,-11.373 -0.686,-34.747 c -0.059,-2.964 -0.994,-5.845 -2.689,-8.278 l -19.868,-28.522 19.869,-28.524 c 1.695,-2.433 2.63,-5.313 2.689,-8.277 l 0.687,-34.748 32.85,-11.372 c 2.811,-0.973 5.27,-2.76 7.062,-5.134 L 319.381,32.402 352.63,42.53 c 2.85,0.868 5.893,0.868 8.742,0 l 33.25,-10.128 20.943,27.726 c 1.793,2.374 4.251,4.161 7.062,5.134 l 32.85,11.373 0.686,34.747 c 0.059,2.964 0.994,5.845 2.689,8.278 l 19.869,28.522 -19.869,28.524 c -1.695,2.433 -2.63,5.313 -2.689,8.277 l -0.687,34.747 -32.85,11.372 c -2.811,0.973 -5.27,2.76 -7.062,5.134 l -20.943,27.725 -33.249,-10.128 c -1.425,-0.434 -2.898,-0.651 -4.371,-0.651 -1.473,0 -2.946,0.217 -4.371,0.651 l -33.25,10.127 z"
       id="path4"
       style="fill:#ffffff" />
    <path
       d="m 437,148.183 c 0,-44.112 -35.888,-80 -80,-80 -44.112,0 -80,35.888 -80,80 0,44.112 35.888,80 80,80 44.112,0 80,-35.888 80,-80 z m -130,0 c 0,-27.57 22.43,-50 50,-50 27.57,0 50,22.43 50,50 0,27.57 -22.43,50 -50,50 -27.57,0 -50,-22.43 -50,-50 z"
       id="path6"
       style="fill:#ffffff" />
  </g>
  <g
     id="g914"
     transform="matrix(0.46294011,0,0,0.41496973,335.49593,346.88387)"
     style="fill:#ffffff">
    <g
       id="g854"
       style="fill:#ffffff">
      <g
         id="g852"
         style="fill:#ffffff">
        <g
           id="g850"
           style="fill:#ffffff">
          <path
             d="m 288,192 c 0,-37.653 -21.76,-70.187 -53.333,-85.867 v 171.84 C 266.24,262.187 288,229.653 288,192 Z"
             id="path844"
             style="fill:#ffffff" />
          <polygon
             points="0,256 85.333,256 192,362.667 192,21.333 85.333,128 0,128 "
             id="polygon846"
             style="fill:#ffffff" />
          <path
             d="M 234.667,4.907 V 48.96 c 61.653,18.347 106.666,75.413 106.666,143.04 0,67.627 -45.013,124.693 -106.666,143.04 v 44.053 C 320.107,359.68 384,283.413 384,192 384,100.587 320.107,24.32 234.667,4.907 Z"
             id="path848"
             style="fill:#ffffff" />
        </g>
      </g>
    </g>
    <g
       id="g856"
       style="fill:#ffffff" />
    <g
       id="g858"
       style="fill:#ffffff" />
    <g
       id="g860"
       style="fill:#ffffff" />
    <g
       id="g862"
       style="fill:#ffffff" />
    <g
       id="g864"
       style="fill:#ffffff" />
    <g
       id="g866"
       style="fill:#ffffff" />
    <g
       id="g868"
       style="fill:#ffffff" />
    <g
       id="g870"
       style="fill:#ffffff" />
    <g
       id="g872"
       style="fill:#ffffff" />
    <g
       id="g874"
       style="fill:#ffffff" />
    <g
       id="g876"
       style="fill:#ffffff" />
    <g
       id="g878"
       style="fill:#ffffff" />
    <g
       id="g880"
       style="fill:#ffffff" />
    <g
       id="g882"
       style="fill:#ffffff" />
    <g
       id="g884"
       style="fill:#ffffff" />
  </g>
</svg>
