<?xml version="1.0" encoding="UTF-8" standalone="no"?>
<svg
   xmlns:dc="http://purl.org/dc/elements/1.1/"
   xmlns:cc="http://creativecommons.org/ns#"
   xmlns:rdf="http://www.w3.org/1999/02/22-rdf-syntax-ns#"
   xmlns:svg="http://www.w3.org/2000/svg"
   xmlns="http://www.w3.org/2000/svg"
   xmlns:sodipodi="http://sodipodi.sourceforge.net/DTD/sodipodi-0.dtd"
   xmlns:inkscape="http://www.inkscape.org/namespaces/inkscape"
   id="Capa_1"
   enable-background="new 0 0 512 512"
   height="512"
   viewBox="0 0 512 512"
   width="512"
   version="1.1"
   sodipodi:docname="night-volume-w.svg"
   inkscape:version="1.0.2 (e86c870, 2021-01-15)">
  <metadata
     id="metadata19">
    <rdf:RDF>
      <cc:Work
         rdf:about="">
        <dc:format>image/svg+xml</dc:format>
        <dc:type
           rdf:resource="http://purl.org/dc/dcmitype/StillImage" />
        <dc:title></dc:title>
      </cc:Work>
    </rdf:RDF>
  </metadata>
  <defs
     id="defs17" />
  <sodipodi:namedview
     pagecolor="#ffffff"
     bordercolor="#666666"
     borderopacity="1"
     objecttolerance="10"
     gridtolerance="10"
     guidetolerance="10"
     inkscape:pageopacity="0"
     inkscape:pageshadow="2"
     inkscape:window-width="1920"
     inkscape:window-height="1017"
     id="namedview15"
     showgrid="true"
     inkscape:zoom="1.6484375"
     inkscape:cx="299.41865"
     inkscape:cy="264.73519"
     inkscape:window-x="0"
     inkscape:window-y="39"
     inkscape:window-maximized="1"
     inkscape:current-layer="Capa_1"
     inkscape:document-rotation="0">
    <inkscape:grid
       type="xygrid"
       id="grid921" />
  </sodipodi:namedview>
  <g
     id="g914"
     transform="matrix(0.46294011,0,0,0.41496973,335.49593,346.88387)"
     style="fill:#ffffff">
    <g
       id="g854"
       style="fill:#ffffff">
      <g
         id="g852"
         style="fill:#ffffff">
        <g
           id="g850"
           style="fill:#ffffff">
          <path
             d="m 288,192 c 0,-37.653 -21.76,-70.187 -53.333,-85.867 v 171.84 C 266.24,262.187 288,229.653 288,192 Z"
             id="path844"
             style="fill:#ffffff" />
          <polygon
             points="0,256 85.333,256 192,362.667 192,21.333 85.333,128 0,128 "
             id="polygon846"
             style="fill:#ffffff" />
          <path
             d="M 234.667,4.907 V 48.96 c 61.653,18.347 106.666,75.413 106.666,143.04 0,67.627 -45.013,124.693 -106.666,143.04 v 44.053 C 320.107,359.68 384,283.413 384,192 384,100.587 320.107,24.32 234.667,4.907 Z"
             id="path848"
             style="fill:#ffffff" />
        </g>
      </g>
    </g>
    <g
       id="g856"
       style="fill:#ffffff" />
    <g
       id="g858"
       style="fill:#ffffff" />
    <g
       id="g860"
       style="fill:#ffffff" />
    <g
       id="g862"
       style="fill:#ffffff" />
    <g
       id="g864"
       style="fill:#ffffff" />
    <g
       id="g866"
       style="fill:#ffffff" />
    <g
       id="g868"
       style="fill:#ffffff" />
    <g
       id="g870"
       style="fill:#ffffff" />
    <g
       id="g872"
       style="fill:#ffffff" />
    <g
       id="g874"
       style="fill:#ffffff" />
    <g
       id="g876"
       style="fill:#ffffff" />
    <g
       id="g878"
       style="fill:#ffffff" />
    <g
       id="g880"
       style="fill:#ffffff" />
    <g
       id="g882"
       style="fill:#ffffff" />
    <g
       id="g884"
       style="fill:#ffffff" />
  </g>
  <path
     d="m 365,270.6541 c -14.51609,3.92365 -29.03219,5.91257 -43.14216,5.91257 -91.44908,0 -165.84959,-74.71062 -165.84959,-166.54251 0,-27.198657 6.41007,-53.226726 19.0548,-77.36071 3.7454,-7.149556 2.91833,-15.847709 -2.10745,-22.157256 C 167.92981,4.1980022 159.66054,1.474749 151.89182,3.5774799 62.00513,27.869982 -0.772,110.06345 -0.772,203.45613 c 0,114.24522 92.558114,207.18944 206.32573,207.18944 76.80616,0 146.78128,-42.49629 182.61751,-110.9055 3.74539,-7.14955 2.91832,-15.84771 -2.10747,-22.15726 C 381.03664,271.27463 372.77006,268.55408 365,270.6541 Z M 205.55373,370 C 114.10466,370 39.704131,295.28802 39.704131,203.45613 c 0,-59.95628 32.204159,-114.172046 81.993849,-143.508664 -4.07191,16.358487 -6.16587,33.20743 -6.16587,50.076694 0,114.24386 92.55812,207.18809 206.32573,207.18809 1.6069,0 3.2192,-0.0203 4.83285,-0.061 -30.91972,33.31311 -74.45854,52.84873 -121.13696,52.84873 z"
     id="path855"
     style="stroke-width:1.35203;fill:#ffffff" />
</svg>
