<?xml version="1.0" encoding="UTF-8" standalone="no"?>
<svg
   xmlns:dc="http://purl.org/dc/elements/1.1/"
   xmlns:cc="http://creativecommons.org/ns#"
   xmlns:rdf="http://www.w3.org/1999/02/22-rdf-syntax-ns#"
   xmlns:svg="http://www.w3.org/2000/svg"
   xmlns="http://www.w3.org/2000/svg"
   xmlns:sodipodi="http://sodipodi.sourceforge.net/DTD/sodipodi-0.dtd"
   xmlns:inkscape="http://www.inkscape.org/namespaces/inkscape"
   id="Capa_1"
   enable-background="new 0 0 512 512"
   height="512"
   viewBox="0 0 512 512"
   width="512"
   version="1.1"
   sodipodi:docname="night-brightness.svg"
   inkscape:version="1.0.2 (e86c870, 2021-01-15)">
  <metadata
     id="metadata39">
    <rdf:RDF>
      <cc:Work
         rdf:about="">
        <dc:format>image/svg+xml</dc:format>
        <dc:type
           rdf:resource="http://purl.org/dc/dcmitype/StillImage" />
        <dc:title />
      </cc:Work>
    </rdf:RDF>
  </metadata>
  <defs
     id="defs37" />
  <sodipodi:namedview
     pagecolor="#ffffff"
     bordercolor="#666666"
     borderopacity="1"
     objecttolerance="10"
     gridtolerance="10"
     guidetolerance="10"
     inkscape:pageopacity="0"
     inkscape:pageshadow="2"
     inkscape:window-width="1920"
     inkscape:window-height="1017"
     id="namedview35"
     showgrid="true"
     inkscape:zoom="1.1656213"
     inkscape:cx="170.81728"
     inkscape:cy="309.77317"
     inkscape:window-x="0"
     inkscape:window-y="39"
     inkscape:window-maximized="1"
     inkscape:current-layer="Capa_1"
     inkscape:document-rotation="0">
    <inkscape:grid
       type="xygrid"
       id="grid948" />
  </sodipodi:namedview>
  <g
     id="g893">
    <g
       id="g946"
       transform="translate(234.07564,354.13907)"
       style="fill:#ffffff">
      <g
         id="g882"
         transform="translate(58.716358,-64.206071)"
         style="fill:#ffffff">
        <path
           d="m 109.881,183.46 c -4.142,0 -7.5,3.358 -7.5,7.5 v 21.324 c 0,4.142 3.358,7.5 7.5,7.5 4.143,0 7.5,-3.358 7.5,-7.5 V 190.96 c 0,-4.143 -3.358,-7.5 -7.5,-7.5 z"
           id="path864"
           style="fill:#ffffff" />
        <path
           d="m 109.881,36.329 c 4.143,0 7.5,-3.358 7.5,-7.5 V 7.503 c 0,-4.142 -3.357,-7.5 -7.5,-7.5 -4.142,0 -7.5,3.358 -7.5,7.5 v 21.326 c 0,4.142 3.358,7.5 7.5,7.5 z"
           id="path866"
           style="fill:#ffffff" />
        <path
           d="m 47.269,161.909 -15.084,15.076 c -2.93,2.928 -2.931,7.677 -0.003,10.606 1.465,1.465 3.385,2.198 5.305,2.198 1.919,0 3.837,-0.732 5.302,-2.195 l 15.084,-15.076 c 2.93,-2.928 2.931,-7.677 0.003,-10.606 -2.93,-2.93 -7.678,-2.93 -10.607,-0.003 z"
           id="path868"
           style="fill:#ffffff" />
        <path
           d="m 167.208,60.067 c 1.919,0 3.838,-0.732 5.303,-2.196 l 15.082,-15.076 c 2.929,-2.929 2.93,-7.677 0.002,-10.607 -2.929,-2.93 -7.677,-2.931 -10.607,-0.001 l -15.082,15.076 c -2.929,2.928 -2.93,7.677 -0.002,10.606 1.464,1.466 3.384,2.198 5.304,2.198 z"
           id="path870"
           style="fill:#ffffff" />
        <path
           d="m 36.324,109.895 c 0,-4.142 -3.358,-7.5 -7.5,-7.5 H 7.5 c -4.142,0 -7.5,3.358 -7.5,7.5 0,4.142 3.358,7.5 7.5,7.5 h 21.324 c 4.142,0 7.5,-3.358 7.5,-7.5 z"
           id="path872"
           style="fill:#ffffff" />
        <path
           d="m 212.286,102.395 h -21.334 c -4.143,0 -7.5,3.358 -7.5,7.5 0,4.142 3.357,7.5 7.5,7.5 h 21.334 c 4.143,0 7.5,-3.358 7.5,-7.5 0,-4.141 -3.357,-7.5 -7.5,-7.5 z"
           id="path874"
           style="fill:#ffffff" />
        <path
           d="m 47.267,57.871 c 1.464,1.464 3.384,2.196 5.303,2.196 1.919,0 3.839,-0.732 5.303,-2.196 2.929,-2.929 2.929,-7.678 0,-10.607 L 42.797,32.188 c -2.929,-2.929 -7.678,-2.929 -10.606,0 -2.929,2.929 -2.929,7.678 0,10.606 z"
           id="path876"
           style="fill:#ffffff" />
        <path
           d="m 172.52,161.911 c -2.929,-2.929 -7.678,-2.93 -10.607,-0.001 -2.93,2.929 -2.93,7.678 -0.001,10.606 l 15.074,15.076 c 1.465,1.465 3.384,2.197 5.304,2.197 1.919,0 3.839,-0.732 5.303,-2.196 2.93,-2.929 2.93,-7.678 0.001,-10.606 z"
           id="path878"
           style="fill:#ffffff" />
        <path
           d="m 109.889,51.518 c -32.187,0 -58.373,26.188 -58.373,58.377 0,32.188 26.186,58.375 58.373,58.375 32.19,0 58.378,-26.187 58.378,-58.375 0,-32.189 -26.189,-58.377 -58.378,-58.377 z m 0,101.752 c -23.916,0 -43.373,-19.458 -43.373,-43.375 0,-23.918 19.457,-43.377 43.373,-43.377 23.919,0 43.378,19.459 43.378,43.377 0,23.917 -19.459,43.375 -43.378,43.375 z"
           id="path880"
           style="fill:#ffffff" />
      </g>
      <g
         id="g884"
         style="fill:#ffffff" />
      <g
         id="g886"
         style="fill:#ffffff" />
      <g
         id="g888"
         style="fill:#ffffff" />
      <g
         id="g890"
         style="fill:#ffffff" />
      <g
         id="g892"
         style="fill:#ffffff" />
      <g
         id="g894"
         style="fill:#ffffff" />
      <g
         id="g896"
         style="fill:#ffffff" />
      <g
         id="g898"
         style="fill:#ffffff" />
      <g
         id="g900"
         style="fill:#ffffff" />
      <g
         id="g902"
         style="fill:#ffffff" />
      <g
         id="g904"
         style="fill:#ffffff" />
      <g
         id="g906"
         style="fill:#ffffff" />
      <g
         id="g908"
         style="fill:#ffffff" />
      <g
         id="g910"
         style="fill:#ffffff" />
      <g
         id="g912"
         style="fill:#ffffff" />
    </g>
    <g
       id="g987"
       transform="matrix(0.73046875,0,0,0.73046875,-0.564,5.247)"
       style="fill:#ffffff">
      <circle
         cx="467"
         cy="45"
         r="15"
         id="circle968"
         style="fill:#ffffff" />
      <path
         d="m 257,512 c 111.999,0 207.212,-73.213 241.418,-174.356 2.137,-6.319 -0.155,-13.289 -5.625,-17.106 -5.471,-3.817 -12.803,-3.564 -17.997,0.622 C 442.455,347.223 403.451,361 362,361 262.196,361 181,280.252 181,181 c 0,-61.371 32.685,-120.091 85.3,-153.243 5.643,-3.556 8.26,-10.41 6.423,-16.822 C 270.921,4.646 265.259,0.265 258.749,0.073 258.393,0.046 257.76,0 257,0 116.126,0 0,114.957 0,256 0,396.992 116.068,512 257,512 Z M 210.564,34.753 C 172.148,74.608 151,127.138 151,181 c 0,115.794 94.654,210 211,210 30.463,0 60.542,-6.738 87.993,-19.419 C 409.906,439.101 337.147,482 257,482 131.832,482 30,380.617 30,256 30,147.219 107.585,56.144 210.564,34.753 Z"
         id="path970"
         style="fill:#ffffff" />
      <path
         d="m 287,120 c 24.392,0 45,21.065 45,46 0,8.284 6.716,15 15,15 8.284,0 15,-6.716 15,-15 0,-24.935 20.607,-46 45,-46 8.284,0 15,-6.716 15,-15 0,-8.284 -6.716,-15 -15,-15 -24.813,0 -45,-20.187 -45,-45 0,-8.284 -6.716,-15 -15,-15 -8.284,0 -15,6.716 -15,15 0,24.813 -20.187,45 -45,45 -8.284,0 -15,6.716 -15,15 0,8.284 6.716,15 15,15 z m 60,-30.052 c 4.331,5.766 9.472,10.891 15.253,15.203 -5.783,4.409 -10.865,9.568 -15.253,15.48 -4.387,-5.911 -9.468,-11.069 -15.253,-15.48 5.782,-4.312 10.922,-9.437 15.253,-15.203 z"
         id="path972"
         style="fill:#ffffff" />
      <circle
         cx="497"
         cy="166"
         r="15"
         id="circle974"
         style="fill:#ffffff" />
    </g>
  </g>
</svg>
